<svg width="100" height="100" viewBox="0 0 100 100" fill="none" xmlns="http://www.w3.org/2000/svg">
<path d="M54.8693 21.6599C54.8693 21.6599 54.8949 21.4791 55.0352 21.2852C54.9243 21.5176 54.8693 21.6599 54.8693 21.6599ZM93.4857 83.9289C92.8178 83.9289 58.2316 83.9289 56.3522 83.9289C54.4724 83.9289 51.59 84.0119 49.0832 81.548C46.5765 79.0842 48.6241 75.0328 50.7118 73.4877C52.8 71.9425 62.0843 67.854 62.0843 67.854L65.8507 65.8145C65.4191 65.8661 65.1794 65.8864 65.1794 65.8864L64.3644 62.9986C64.3162 62.9837 64.2776 62.9432 64.2737 62.8897C64.2699 62.853 64.2848 62.8197 64.307 62.7937L62.9475 57.9769C62.0182 58.7259 60.9703 59.5023 60.028 60.0386C59.3914 60.4003 58.7018 60.5329 58.0083 60.4996C58.2132 60.9168 58.3386 61.3759 58.3844 61.8755C58.4235 62.2941 58.4124 62.6186 58.3608 62.8766C58.3497 62.9765 58.3348 63.0777 58.3126 63.1829C58.3015 63.2311 58.2663 63.2658 58.2224 63.2769C57.9605 63.749 57.4474 63.832 56.8263 63.9352C55.8227 64.103 54.7106 61.9859 54.7106 61.9859C54.7106 61.9859 54.2641 61.7077 50.6453 62.8217C47.0525 63.926 44.6677 64.592 43.4891 63.4578C43.4688 63.5021 43.4264 63.5335 43.3787 63.5335C43.3676 63.5335 43.3565 63.5315 43.3454 63.5277C42.7956 63.9632 40.3887 65.8179 38.2822 66.5519C38.2822 66.5519 38.288 66.563 38.2952 66.5818C38.3083 66.6112 38.3285 66.6647 38.356 66.7366C38.3579 66.74 38.3599 66.7458 38.3618 66.7491C38.6603 67.5313 39.6566 70.4413 38.5055 71.7839C38.5055 71.7839 39.7304 74.1773 38.3377 76.4048C36.9454 78.6328 35.108 79.1893 35.108 79.1893C35.108 79.1893 35.9992 80.4138 36.5562 80.9158C37.1132 81.4173 39.4517 81.3619 40.3979 82.0293C41.344 82.6968 40.8444 83.7553 40.23 83.7553C40.1119 83.7553 39.8447 83.7553 39.4796 83.7553C39.4628 83.7645 39.4444 83.7702 39.4242 83.7702C39.4184 83.7702 39.4131 83.7702 39.4073 83.7683C39.3928 83.7664 39.3798 83.7611 39.3668 83.7553C37.8067 83.7553 34.6914 83.7553 33.1588 83.7553C31.209 83.7553 30.652 83.1433 28.8151 82.2526C26.9782 81.3619 26.3084 79.8587 26.6995 77.5188C26.6995 77.5188 23.6362 74.4555 21.1863 70.4466C21.1863 70.4466 20.4615 73.4544 16.1733 75.1804C11.8851 76.9063 10.1037 76.0711 10.1037 76.0711L10.6052 75.1254C10.6052 75.1254 3.42111 73.8436 2.75174 66.7732L4.14449 66.6054C4.14449 66.6054 2.69628 60.4794 6.98447 57.5844C6.98447 57.5844 5.03521 64.8794 9.43577 67.9408C13.8368 71.0016 20.2402 67.4392 20.2402 67.4392C20.2402 67.4392 20.1297 62.1484 24.0268 58.8643C27.9258 55.5777 31.5447 51.792 34.0514 47.0602C36.5577 42.3264 37.0597 41.7139 36.8364 39.0972C36.8364 39.0972 35.7779 38.7635 35.6115 37.093C35.4437 35.422 35.3332 32.6374 35.8348 31.3026C36.3363 29.9653 37.9504 29.1874 39.9002 28.3517C41.8494 27.5164 44.1329 27.1272 45.6361 28.4626C47.1393 29.7994 48.1978 30.0207 49.5351 29.8548C49.9778 29.7994 50.4297 29.7034 50.8502 29.6484C50.8816 29.6446 50.9129 29.6407 50.9442 29.6373C50.9795 29.6335 51.0142 29.6296 51.0475 29.6263C51.1068 29.6205 51.1656 29.6171 51.223 29.6132C51.2466 29.6113 51.2707 29.6113 51.2948 29.6113C51.3373 29.6094 51.3778 29.6094 51.4183 29.6113C51.4424 29.6113 51.468 29.6132 51.4921 29.6132C51.5437 29.6152 51.5934 29.6205 51.6416 29.6263C51.658 29.6282 51.6729 29.6296 51.6893 29.6335C51.7376 29.6407 51.7853 29.6518 51.8316 29.6629C51.8499 29.6687 51.8682 29.674 51.8851 29.6798C51.9256 29.6923 51.9661 29.7073 52.0047 29.7256C52.0158 29.7314 52.0288 29.7348 52.0419 29.7405C52.0896 29.7647 52.134 29.7921 52.1764 29.8235C52.1894 29.8327 52.2005 29.8418 52.2111 29.851C52.2444 29.879 52.2757 29.9084 52.3056 29.9397C52.3163 29.9508 52.3259 29.9619 52.337 29.973C52.3736 30.0169 52.4069 30.0651 52.4383 30.1186C52.4436 30.1297 52.4494 30.1408 52.4547 30.1519C52.4788 30.1977 52.5029 30.2493 52.5212 30.3029C52.5285 30.3212 52.5342 30.34 52.5415 30.3583C52.5637 30.4263 52.5839 30.4982 52.6003 30.5797C52.6263 30.7123 52.6466 30.8377 52.6669 30.9578C52.6707 30.9799 52.6741 31.0002 52.6779 31.0219C52.6963 31.14 52.7112 31.2543 52.7242 31.3633C52.7262 31.3725 52.7262 31.3797 52.7276 31.3889C52.8366 32.322 52.7575 32.9273 52.7132 33.8103C52.6577 34.9243 51.9329 35.5917 50.2064 35.9828C49.0133 36.2519 48.2716 36.4694 47.8916 36.7424C48.2128 37.9726 48.6555 39.5124 48.9265 39.9918C49.1773 40.4379 51.7853 44.5115 53.4838 47.1595C54.8394 45.0685 57.9181 40.3405 59.1184 38.7119C59.8119 37.7715 60.869 36.7535 61.9903 35.9143C61.8244 35.6636 61.6454 35.3887 61.4849 35.1418C61.4038 35.0183 61.3262 34.8982 61.2601 34.797C61.2563 34.7897 61.251 34.7839 61.2471 34.7767C61.2211 34.7362 61.1974 34.701 61.1752 34.6658C61.168 34.6552 61.1603 34.6422 61.1531 34.6311C61.127 34.5906 61.1034 34.5515 61.0831 34.5221C61.0629 34.4907 61.0421 34.4632 61.0204 34.4372C61.0127 34.43 61.0055 34.4227 61.0002 34.415C60.9852 34.3986 60.9684 34.3837 60.952 34.3692C60.9428 34.362 60.9356 34.3562 60.9264 34.3509C60.9095 34.3398 60.8931 34.3268 60.8763 34.3176C60.8671 34.3118 60.8579 34.3084 60.8488 34.3027C60.8304 34.2935 60.8116 34.2863 60.7914 34.2785C60.7822 34.2752 60.775 34.2732 60.7658 34.2694C60.7436 34.2621 60.7195 34.2583 60.6954 34.253C60.6882 34.2511 60.6829 34.2511 60.6752 34.2491C60.5797 34.2347 60.4707 34.24 60.3525 34.2549C60.1148 34.2863 59.8327 34.3634 59.4951 34.4353C58.7018 34.6031 56.7376 34.5187 55.7764 32.431C54.8158 30.3434 54.565 27.8376 54.3138 25.4567C54.1942 24.3113 54.4136 22.6538 55.1331 21.1801C55.0998 21.2133 55.0704 21.2485 55.0444 21.2818C55.3819 20.5826 56.2375 19.076 57.6413 18.2996C58.8127 17.6524 61.6749 17.1065 63.8146 18.0416C63.9622 17.6432 64.2057 17.1692 64.5746 16.9628C65.2696 16.5736 65.9394 17.2135 66.7192 16.8244C67.4995 16.4357 68.4182 15.9616 69.1136 16.4906C69.809 17.0202 69.6981 18.0213 70.5339 18.1062C71.3691 18.1891 71.8986 19.9725 71.2293 20.4996C70.5613 21.0291 71.006 22.1981 70.2257 22.8381C69.4454 23.478 69.0287 23.3396 68.0531 23.8691C67.4185 24.2139 66.9242 24.4256 66.4188 24.2636C66.0995 27.8689 64.2737 30.2585 64.2737 30.2585C64.2737 30.2585 64.2718 30.2532 64.2718 30.2493C63.9955 31.2823 64.2699 31.9015 64.7126 32.4715C65.137 33.0175 66.0002 33.7606 66.4429 34.1257C68.5214 34.4078 72.6032 36.2871 76.2698 41.9372C79.007 46.1564 82.5222 52.0872 84.4772 55.4268C84.4849 55.4321 84.4922 55.436 84.4975 55.4432C84.5124 55.4615 84.5197 55.4837 84.5235 55.504C85.407 57.0124 85.9602 57.9736 85.9602 57.9736C85.516 58.4766 85.0178 58.9487 84.4772 59.3933C89.3745 65.9934 85.5912 74.2197 80.1688 75.7928C77.1643 76.6633 68.9236 77.963 68.9236 77.963L67.8024 78.2528C67.8057 78.2673 67.8057 78.2822 67.8038 78.2972C68.6526 78.3893 73.7336 78.9463 75.9505 79.3277C78.3743 79.7444 80.2942 79.9547 81.5061 79.4531C82.718 78.9516 83.7191 78.2012 84.8056 79.3702C85.8922 80.5392 87.5207 80.7899 89.2342 81.1241C90.9476 81.4578 92.8675 82.2102 93.6627 82.7117C94.4464 83.219 94.1532 83.9289 93.4857 83.9289ZM53.6299 58.1115C53.4896 57.9345 53.3661 57.7556 53.261 57.5752C52.798 56.7877 51.4439 54.2872 49.972 51.5596C50.0333 52.4248 50.0444 53.2084 49.974 53.804C49.6402 56.644 48.2475 58.6482 48.2475 58.6482C48.2475 58.6482 51.2394 57.9326 53.6299 58.1115Z" fill="#565772"/>
<path d="M85.9529 57.9789C80.1616 64.5496 65.1794 65.8864 65.1794 65.8864L62.7281 57.1991L60.0555 52.2439L52.8164 48.1795C52.8164 48.1795 57.5511 40.829 59.1093 38.7138C60.6679 36.5987 64.0654 34.0924 65.9042 34.0924C67.7411 34.0924 72.2526 35.7634 76.2625 41.9444C80.272 48.124 85.9529 57.9789 85.9529 57.9789ZM57.35 21.0957C57.7426 22.3032 58.8605 24.7598 61.4998 25.0916C61.9478 25.842 62.243 26.3971 62.4219 26.4062C62.8959 26.4342 63.3406 24.6803 64.5949 24.9035C65.8468 25.1268 65.4856 27.7435 64.6779 28.3835C63.8701 29.0229 64.2665 30.2623 64.2665 30.2623C64.2665 30.2623 66.0923 27.8723 66.4116 24.2674C66.917 24.4295 67.4113 24.2173 68.0454 23.8725C69.0196 23.3435 69.4382 23.4833 70.2185 22.8419C70.9983 22.202 70.5522 21.033 71.2216 20.5035C71.8895 19.9744 71.36 18.193 70.5261 18.11C69.6909 18.0271 69.8013 17.0235 69.1059 16.4945C68.411 15.965 67.4904 16.439 66.712 16.8282C65.9317 17.2174 65.2643 16.5774 64.5669 16.9666C64.198 17.173 63.9545 17.6471 63.8069 18.0454C61.6676 17.1084 58.805 17.6562 57.6341 18.3034C56.2302 19.0779 55.3747 20.5845 55.0372 21.2852C55.2841 20.9462 55.8927 20.5681 57.35 21.0957ZM54.8693 21.6599C54.8693 21.6599 54.9243 21.5157 55.0352 21.2852C54.8968 21.4791 54.8693 21.6599 54.8693 21.6599ZM54.4319 25.0844C54.5964 25.1249 54.7251 24.9166 55.2252 24.8756C55.7268 24.8336 55.9554 24.8129 55.9775 24.5621C55.9978 24.3113 55.2474 24.3943 54.8288 24.5621C54.4097 24.7299 54.347 25.0641 54.4319 25.0844ZM57.147 24.6875C57.1745 24.9108 57.6061 24.7082 58.4843 24.6875C59.362 24.6672 59.6962 25.0217 59.7994 24.9807C59.9045 24.9387 59.2569 24.1879 58.3994 24.1879C57.5415 24.1879 57.1248 24.5216 57.147 24.6875Z" fill="#242330"/>
<path d="M84.4738 55.6279C76.956 61.8181 64.5356 62.9948 64.4102 63.0059C64.4063 63.0059 64.403 63.0059 64.3991 63.0059C64.3345 63.0059 64.2795 62.9562 64.2737 62.8916C64.2684 62.8217 64.32 62.7604 64.388 62.7551C64.5115 62.744 76.8562 61.5731 84.3133 55.434C84.3668 55.3897 84.4459 55.3974 84.4902 55.4509C84.5365 55.5025 84.5288 55.5835 84.4738 55.6279ZM82.1002 52.0004C82.0578 51.9449 81.9782 51.9338 81.9227 51.9763C75.9968 56.5292 63.7683 59.7733 63.6449 59.8066C63.5764 59.8249 63.5359 59.8929 63.5547 59.9614C63.5691 60.0183 63.6207 60.0555 63.6762 60.0555C63.6873 60.0555 63.6984 60.0535 63.7075 60.0516C63.831 60.0183 76.1092 56.7617 82.0761 52.1774C82.1315 52.1349 82.1422 52.0558 82.1002 52.0004ZM70.9081 53.3999C70.9264 53.4515 70.9746 53.4848 71.0281 53.4848C71.0426 53.4848 71.0556 53.4828 71.0706 53.4775C71.1347 53.4553 77.5275 51.1593 80.2445 48.8325C80.298 48.7862 80.3033 48.7071 80.2575 48.6536C80.2112 48.6 80.1321 48.5942 80.0786 48.6405C77.3987 50.9365 71.0484 53.2157 70.9857 53.2398C70.9192 53.262 70.8859 53.3357 70.9081 53.3999ZM74.8625 46.6064C74.8809 46.658 74.9291 46.6913 74.9826 46.6913C74.9971 46.6913 75.0101 46.6893 75.0246 46.684C75.0434 46.6782 76.7771 46.0585 78.1086 45.2826C78.1693 45.2474 78.1896 45.1698 78.1549 45.109C78.1197 45.0482 78.042 45.028 77.9813 45.0632C76.67 45.828 74.9566 46.4386 74.9402 46.4458C74.8736 46.468 74.8384 46.5418 74.8625 46.6064ZM74.3128 40.6226C74.3388 40.6226 74.3644 40.6149 74.3866 40.5985L74.7757 40.3202C74.8331 40.2792 74.8457 40.2001 74.8052 40.1427C74.7646 40.0858 74.6856 40.0728 74.6282 40.1133L74.239 40.3921C74.1821 40.4326 74.1691 40.5117 74.2096 40.5691C74.2356 40.6038 74.2742 40.6226 74.3128 40.6226ZM65.5705 36.7795C65.5724 36.7795 65.5758 36.7795 65.5777 36.7795L68.2504 36.6117C68.3203 36.6078 68.3738 36.5471 68.3685 36.4771C68.3647 36.4067 68.3092 36.3551 68.2335 36.359L65.5613 36.5268C65.4909 36.5302 65.4374 36.5914 65.4432 36.6614C65.447 36.7279 65.5039 36.7795 65.5705 36.7795ZM66.4024 38.5422C66.3397 38.5127 66.264 38.5402 66.2346 38.6029C66.2047 38.6661 66.2326 38.7413 66.2953 38.7707L74.4825 42.5569C74.4989 42.5641 74.5177 42.568 74.5361 42.568C74.5838 42.568 74.6301 42.54 74.6503 42.4942C74.6798 42.4315 74.6523 42.3558 74.5896 42.3264L66.4024 38.5422ZM64.7328 41.3879L74.702 46.3426C74.7203 46.3518 74.7391 46.3556 74.7593 46.3556C74.8052 46.3556 74.8495 46.3301 74.8717 46.2857C74.903 46.223 74.8775 46.1473 74.8143 46.1159L64.8457 41.1608C64.7849 41.1294 64.7073 41.1555 64.6759 41.2182C64.6465 41.2809 64.6701 41.3566 64.7328 41.3879ZM73.3058 50.0164C73.3242 50.027 73.3463 50.0328 73.3666 50.0328C73.411 50.0328 73.4553 50.0087 73.4775 49.9682C73.5108 49.9074 73.4886 49.8298 73.4274 49.7965L63.2354 44.1725C63.1747 44.1392 63.097 44.1614 63.0637 44.2221C63.0305 44.2829 63.0526 44.3605 63.1134 44.3933L73.3058 50.0164ZM71.194 52.8154C71.2384 52.8154 71.2823 52.7913 71.3045 52.7493C71.3378 52.6881 71.3156 52.6109 71.2548 52.5776L62.0105 47.5101C61.9497 47.4769 61.8726 47.499 61.8393 47.5598C61.806 47.6206 61.8282 47.6982 61.889 47.7315L71.1333 52.799C71.1535 52.812 71.1738 52.8154 71.194 52.8154ZM60.5647 50.0198C60.5039 49.9851 60.4263 50.0053 60.3911 50.0661C60.3564 50.1268 60.3766 50.2045 60.4374 50.2392L69.1816 55.3067C69.2019 55.3178 69.224 55.3236 69.2443 55.3236C69.2887 55.3236 69.3311 55.3014 69.3533 55.2609C69.3885 55.1997 69.3682 55.1225 69.307 55.0873L60.5647 50.0198ZM67.4629 57.2155C67.5014 57.2155 67.5386 57.1971 67.5641 57.1658C67.6066 57.1103 67.5955 57.0312 67.5386 56.9888L59.9079 51.2534C59.8529 51.2109 59.7733 51.224 59.7309 51.2794C59.6884 51.3349 59.6995 51.414 59.7569 51.4564L67.3871 57.1914C67.4112 57.2063 67.4368 57.2155 67.4629 57.2155ZM60.9466 38.5055C60.9592 38.5055 60.9722 38.5036 60.9872 38.4997C61.1014 38.4611 61.8041 38.3488 62.2468 38.2822C62.3148 38.2711 62.363 38.2065 62.3539 38.1385C62.3428 38.07 62.2801 38.0242 62.2097 38.0314C62.0954 38.0483 61.0812 38.2012 60.9076 38.26C60.8415 38.2822 60.8063 38.3541 60.8285 38.4206C60.8449 38.4722 60.895 38.5055 60.9466 38.5055ZM60.598 41.0007C60.5999 41.0687 60.6568 41.1222 60.7253 41.1222C60.7267 41.1222 60.7267 41.1222 60.7287 41.1222L62.4551 41.0667C62.5251 41.0648 62.5786 41.006 62.5767 40.9361C62.5752 40.8656 62.527 40.8068 62.446 40.814L60.7195 40.8695C60.6515 40.8734 60.596 40.9303 60.598 41.0007ZM60.7103 43.8421C60.7142 43.9106 60.7692 43.9622 60.8357 43.9622C60.8377 43.9622 60.8396 43.9622 60.8415 43.9622L63.2923 43.8513C63.3627 43.8479 63.4163 43.7886 63.4124 43.7187C63.4085 43.6487 63.3608 43.5971 63.2798 43.5986L60.8285 43.7095C60.76 43.7129 60.7065 43.7722 60.7103 43.8421ZM62.188 46.1106C62.1822 46.0402 62.1156 45.9886 62.0529 45.9944L60.4948 46.1048C60.4244 46.1106 60.3728 46.1695 60.3766 46.2394C60.3819 46.3059 60.4374 46.3575 60.502 46.3575C60.5054 46.3575 60.5073 46.3575 60.5112 46.3575L62.0698 46.2466C62.1397 46.2394 62.1913 46.1806 62.188 46.1106ZM54.5336 46.1733L60.4374 49.6807C60.4576 49.6933 60.4798 49.6991 60.502 49.6991C60.5444 49.6991 60.5869 49.6769 60.611 49.6364C60.6457 49.5756 60.6274 49.498 60.5666 49.4628L54.6624 45.9553C54.6016 45.9206 54.524 45.9389 54.4893 45.9997C54.4541 46.0585 54.4724 46.1362 54.5336 46.1733ZM55.9925 43.6724L60.3911 45.7325C60.408 45.7398 60.4263 45.7436 60.4446 45.7436C60.4928 45.7436 60.5372 45.7157 60.5589 45.6699C60.5888 45.6072 60.5608 45.5314 60.4981 45.502L56.0995 43.4418C56.0368 43.4124 55.9611 43.4404 55.9317 43.5031C55.9018 43.5672 55.9298 43.6429 55.9925 43.6724ZM57.5583 41.4468L60.3988 42.6157C60.4152 42.6215 60.4302 42.6249 60.4465 42.6249C60.4962 42.6249 60.5425 42.5955 60.5628 42.5477C60.5888 42.4831 60.5589 42.4093 60.4948 42.3818L57.6543 41.2124C57.5897 41.1868 57.5159 41.2162 57.4899 41.2809C57.4624 41.3469 57.4937 41.4207 57.5583 41.4468ZM59.3161 38.8392L60.653 39.007C60.6587 39.007 60.664 39.009 60.6698 39.009C60.7325 39.009 60.788 38.9627 60.7952 38.8981C60.8044 38.8281 60.7547 38.7654 60.6862 38.7563L59.3494 38.5884C59.2809 38.5812 59.2163 38.629 59.2072 38.6989C59.198 38.7674 59.2477 38.8301 59.3161 38.8392ZM54.6532 58.2571C52.202 57.7006 48.2494 58.6463 48.2494 58.6463C48.2494 58.6463 49.6422 56.6421 49.9759 53.8021C50.3096 50.9621 48.8064 43.8349 48.8064 43.8349C48.8064 43.8349 47.4696 37.6534 47.582 37.1537C47.6924 36.6522 48.4727 36.3735 50.1992 35.9848C51.9256 35.5956 52.6504 34.9262 52.7054 33.8122C52.7609 32.6982 52.8732 32.0308 52.595 30.583C52.3162 29.1358 50.8685 29.6923 49.5312 29.8587C48.1944 30.0265 47.1373 29.8032 45.6322 28.4664C44.129 27.1291 41.8456 27.5203 39.8963 28.3555C37.9465 29.1908 36.331 29.9711 35.8314 31.3059C35.3294 32.6432 35.4422 35.4258 35.6081 37.0964C35.7759 38.7674 36.8325 39.1011 36.8325 39.1011C37.0558 41.7178 36.5543 42.3302 34.0475 47.0636C31.5413 51.7974 27.9205 55.5835 24.0234 58.8677C20.1244 62.1537 20.2368 67.4426 20.2368 67.4426C20.2368 67.4426 13.8329 71.0074 9.43237 67.9442C5.03133 64.8814 6.98108 57.5878 6.98108 57.5878C2.69289 60.4832 4.14061 66.6093 4.14061 66.6093L2.74786 66.7771C3.41578 73.8489 10.6014 75.1288 10.6014 75.1288L10.0998 76.0749C10.0998 76.0749 11.8817 76.9102 16.1699 75.1842C20.4581 73.4582 21.183 70.4504 21.183 70.4504C23.6342 74.4594 26.6956 77.5227 26.6956 77.5227C26.3064 79.8606 26.9743 81.3657 28.8112 82.2565C30.6486 83.1467 31.2056 83.7592 33.1549 83.7592C35.1046 83.7592 39.6161 83.7592 40.2281 83.7592C40.8405 83.7592 41.3421 82.7006 40.3959 82.0332C39.4497 81.3657 37.1094 81.4207 36.5543 80.9192C35.9973 80.4176 35.1061 79.1932 35.1061 79.1932C35.1061 79.1932 36.9435 78.6362 38.3357 76.4087C39.7285 74.1811 38.5036 71.7872 38.5036 71.7872C39.8408 70.2291 38.2808 66.5538 38.2808 66.5538C40.6747 65.7186 43.4597 63.4356 43.4597 63.4356C44.6291 64.6046 47.025 63.9371 50.6438 62.8231C54.2641 61.7096 54.7087 61.9878 54.7087 61.9878C54.7087 61.9878 55.8227 64.103 56.8243 63.9371C57.8274 63.7693 58.5503 63.6589 58.3825 61.8774C58.2185 60.096 57.1045 58.8141 54.6532 58.2571Z" fill="#F76D45"/>
<path d="M53.261 57.5752C52.134 55.6535 45.7007 43.5436 45.1987 42.7913C44.6971 42.0385 43.9043 41.454 43.4852 40.1596C43.0686 38.8648 42.8178 37.445 42.8178 36.4419C42.8178 35.4389 42.7349 35.2305 43.0686 34.688C43.4023 34.1459 44.1126 33.1853 44.5718 32.6837C45.0309 32.1822 45.4499 31.9739 45.5753 32.5159C45.7007 33.058 46.4106 34.9798 46.4106 34.9798C46.6189 34.3523 47.3293 34.4372 47.58 35.5218C47.8308 36.6078 48.5412 39.3224 48.9173 39.9899C49.2935 40.6573 54.932 49.4281 54.932 49.4281L59.36 51.8914L59.8196 51.4747L65.5705 55.692C65.5705 55.692 62.4513 58.6574 60.0299 60.0352C57.6061 61.4183 54.3895 59.4965 53.261 57.5752ZM93.6535 82.717C92.8602 82.2155 90.9385 81.4651 89.225 81.1295C87.5116 80.7938 85.883 80.545 84.7965 79.376C83.71 78.2065 82.7088 78.9588 81.4969 79.4589C80.285 79.9605 78.3632 79.7521 75.9414 79.3335C73.518 78.9164 67.6712 78.2895 67.6712 78.2895L68.9144 77.9688L70.2185 77.7455L64.1614 68.4737L63.0748 68.9328L62.0843 67.8501C62.0843 67.8501 52.7995 71.9387 50.7118 73.4838C48.6241 75.0294 46.5765 79.0808 49.0832 81.5447C51.59 84.008 54.471 83.9251 56.3522 83.9251C58.2316 83.9251 92.8178 83.9251 93.4857 83.9251C94.1532 83.9289 94.4464 83.2191 93.6535 82.717ZM54.3065 25.4606C54.1869 24.3133 54.4063 22.6558 55.1254 21.182C55.4186 20.8777 56.0421 20.6236 57.35 21.0957C57.7426 22.3032 58.8604 24.7598 61.4998 25.0916C61.9478 25.842 62.243 26.3971 62.4219 26.4063C62.8959 26.4342 63.3406 24.6803 64.5949 24.9036C65.8468 25.1268 65.4856 27.7435 64.6779 28.3835C63.9014 28.9993 64.2371 30.163 64.2646 30.2532C63.9877 31.2857 64.2626 31.9054 64.7053 32.4754C65.2898 33.2277 66.7101 34.3543 66.7101 34.3543L62.4074 42.2893L62.4904 36.6927C62.4904 36.6927 61.3633 34.9798 61.0701 34.5202C60.7769 34.0611 60.2768 34.2694 59.4821 34.4372C58.6888 34.605 56.7245 34.5202 55.7639 32.433C54.8066 30.3472 54.5554 27.841 54.3065 25.4606ZM57.147 24.6875C57.1745 24.9108 57.6061 24.7082 58.4843 24.6875C59.362 24.6673 59.6962 25.0217 59.7994 24.9807C59.9045 24.9388 59.2568 24.1879 58.3994 24.1879C57.5415 24.1879 57.1248 24.5216 57.147 24.6875ZM54.4319 25.0844C54.5963 25.1249 54.7251 24.9166 55.2252 24.8756C55.7268 24.8336 55.9553 24.8129 55.9775 24.5621C55.9978 24.3113 55.2474 24.3943 54.8288 24.5621C54.4097 24.7299 54.347 25.0641 54.4319 25.0844Z" fill="#D78F67"/>
<path d="M67.5497 57.256C67.4962 57.2116 67.4884 57.1326 67.5328 57.0771L73.6598 49.7136C73.7061 49.6605 73.7852 49.6528 73.8387 49.6972C73.8923 49.7415 73.8995 49.8206 73.8556 49.8761L67.7286 57.2396C67.7026 57.269 67.6674 57.2854 67.6307 57.2854C67.6013 57.2854 67.5733 57.2743 67.5497 57.256ZM66.8687 67.2141C66.8413 67.1494 66.7675 67.12 66.7028 67.1475C66.5977 67.1938 56.1198 71.7265 51.4111 73.956C46.5914 76.2389 48.6555 80.8421 48.6777 80.8898C48.6994 80.9361 48.7437 80.9636 48.792 80.9636C48.8103 80.9636 48.8267 80.9597 48.8455 80.9525C48.9082 80.9231 48.9357 80.8474 48.9063 80.7847C48.8233 80.6058 46.929 76.361 51.5177 74.1865C56.223 71.959 66.6956 67.4263 66.8027 67.3819C66.8668 67.3544 66.8967 67.2787 66.8687 67.2141ZM67.6987 78.166C61.142 76.7554 56.1955 78.3208 56.1473 78.3358C56.0807 78.358 56.0441 78.4279 56.0663 78.4944C56.0827 78.548 56.1323 78.5813 56.1859 78.5813C56.1989 78.5813 56.2119 78.5793 56.2249 78.5755C56.2727 78.5591 61.1584 77.0154 67.6452 78.4115C67.7156 78.424 67.7816 78.3821 67.7966 78.3136C67.8096 78.249 67.7672 78.181 67.6987 78.166ZM58.4621 53.3927L55.2363 49.6842C55.19 49.6306 55.1109 49.6253 55.0574 49.6711C55.0039 49.7174 54.9981 49.7965 55.0444 49.85L58.3864 53.6931C58.4105 53.7211 58.4452 53.7375 58.4824 53.7375C58.4862 53.7375 58.4896 53.7375 58.4935 53.7375C58.534 53.7336 58.5711 53.71 58.5913 53.6748L59.947 51.3552L65.4046 40.0507C65.434 39.988 65.408 39.9123 65.3453 39.8809C65.2826 39.8515 65.2069 39.8775 65.1755 39.9402L60.7581 49.0905C60.327 44.7642 60.843 38.6217 60.8488 38.5591C60.8541 38.4886 60.8025 38.4279 60.7345 38.4226C60.666 38.4168 60.6033 38.4684 60.598 38.5369C60.5922 38.6015 60.0463 45.0868 60.5425 49.4483C60.5445 49.4667 60.5517 49.485 60.5609 49.4999L59.7237 51.2351L58.4621 53.3927ZM58.1356 27.214C58.3348 27.214 58.4973 27.052 58.4973 26.8528C58.4973 26.6537 58.3348 26.4911 58.1356 26.4911C57.9364 26.4911 57.7739 26.6537 57.7739 26.8528C57.7725 27.052 57.9345 27.214 58.1356 27.214ZM55.0998 27.3819C55.299 27.3819 55.461 27.2198 55.461 27.0207C55.461 26.8215 55.299 26.659 55.0998 26.659C54.9007 26.659 54.7381 26.8215 54.7381 27.0207C54.7381 27.2198 54.8987 27.3819 55.0998 27.3819ZM54.9889 29.1469C55.1365 29.4271 55.5073 29.6224 56.0036 29.6798C56.0089 29.6798 56.0127 29.6798 56.018 29.6798C56.0807 29.6798 56.1362 29.6316 56.1434 29.567C56.1511 29.497 56.101 29.4343 56.033 29.4271C55.6274 29.3808 55.3193 29.2318 55.2122 29.0288C55.1476 28.9072 55.1567 28.7669 55.2397 28.6102C55.5184 28.0826 55.95 27.0298 55.9684 26.9835C55.9944 26.9189 55.9645 26.8451 55.8984 26.8196C55.8358 26.7921 55.76 26.8234 55.734 26.8876C55.7306 26.8986 55.2879 27.9741 55.015 28.492C54.8616 28.7833 54.9151 29.0085 54.9889 29.1469ZM58.7534 29.8732C58.8976 29.8732 59.0485 29.864 59.2072 29.8457C59.2771 29.8365 59.3253 29.7738 59.3181 29.7054C59.3085 29.6354 59.2458 29.5858 59.1778 29.5949C57.8868 29.7536 57.0804 29.1267 57.0713 29.1209C57.0158 29.0765 56.9367 29.0876 56.8943 29.1411C56.8499 29.1966 56.8591 29.2757 56.9146 29.3181C56.9459 29.3442 57.623 29.8732 58.7534 29.8732ZM56.1859 30.9486C56.1917 30.9501 56.4164 31.0552 56.7578 31.0552C57.1836 31.0552 57.7889 30.8912 58.3734 30.1611C58.4177 30.1056 58.4086 30.0265 58.3531 29.9841C58.2996 29.9417 58.2186 29.9489 58.1761 30.0044C57.2541 31.1569 56.3373 30.7398 56.2968 30.7215C56.236 30.6921 56.1584 30.7181 56.129 30.7808C56.0976 30.8416 56.1232 30.9173 56.1859 30.9486ZM58.2075 28.2099C58.2224 28.2157 58.2388 28.2191 58.2538 28.2191C58.3034 28.2191 58.3512 28.1877 58.3719 28.138C58.3975 28.0734 58.3642 27.9996 58.2996 27.9741C57.6172 27.7084 57.3553 26.8138 57.352 26.8046C57.3312 26.7385 57.2632 26.6975 57.1947 26.7183C57.1287 26.7366 57.0882 26.8065 57.1084 26.875C57.1195 26.9155 57.405 27.8984 58.2075 28.2099ZM63.7664 27.4981C63.7259 27.5555 63.7408 27.6346 63.7978 27.6731C63.8199 27.6881 63.844 27.6953 63.8701 27.6953C63.9106 27.6953 63.9492 27.677 63.9733 27.6399C64.2091 27.2989 64.0673 27.0019 63.9545 26.7641C63.846 26.5374 63.7852 26.3899 63.8937 26.2148C64.1686 25.774 64.4584 25.6872 64.4657 25.6853C64.5322 25.667 64.5727 25.6004 64.5559 25.5324C64.5395 25.4639 64.4695 25.4234 64.403 25.4403C64.3861 25.4437 64.0157 25.5416 63.6782 26.0798C63.4901 26.3807 63.6208 26.6537 63.7259 26.8731C63.8479 27.1239 63.912 27.2878 63.7664 27.4981ZM61.0721 34.524C61.155 34.6533 61.3026 34.8819 61.4738 35.1437C61.7911 34.6128 62.1436 33.9839 62.2208 33.6888C62.3669 33.1245 62.0125 32.9162 61.4058 33.5431C61.0682 33.8913 60.6477 34.1238 60.3414 34.2602C60.666 34.2159 60.9042 34.2583 61.0721 34.524ZM63.8846 18.2591C63.9159 18.2793 66.985 20.3304 66.4391 24.1069C66.4299 24.1749 66.4776 24.2395 66.5461 24.2506C66.5514 24.2525 66.5591 24.2525 66.5644 24.2525C66.6252 24.2525 66.6807 24.2062 66.6898 24.1435C67.2579 20.205 64.0562 18.0696 64.023 18.0474C63.9641 18.0083 63.8865 18.0252 63.8479 18.084C63.8108 18.1414 63.8277 18.2205 63.8846 18.2591ZM46.5341 35.0589C46.5177 34.9909 46.4511 34.9484 46.3831 34.9648C46.3146 34.9812 46.2722 35.0478 46.2891 35.1162L46.7684 37.1832C46.7814 37.242 46.835 37.2811 46.8919 37.2811C46.9015 37.2811 46.9107 37.2792 46.9218 37.2772C46.9898 37.2608 47.0322 37.1943 47.0158 37.1263L46.5341 35.0589ZM44.8466 32.4774C44.7782 32.488 44.7304 32.5526 44.7396 32.6211L45.3038 36.3793C45.3135 36.442 45.367 36.4863 45.4297 36.4863C45.435 36.4863 45.4422 36.4863 45.448 36.4844C45.516 36.4733 45.5642 36.4087 45.5551 36.3407L44.9904 32.5825C44.9812 32.514 44.9185 32.4677 44.8466 32.4774ZM44.1016 33.3531C44.0316 33.3604 43.9815 33.4231 43.9892 33.4915L44.3451 36.916C44.3523 36.9802 44.4059 37.0284 44.4705 37.0284C44.4739 37.0284 44.4797 37.0284 44.4835 37.0284C44.5534 37.0211 44.6031 36.9585 44.5959 36.89L44.24 33.4655C44.2323 33.3975 44.1696 33.3459 44.1016 33.3531ZM43.4635 34.3138C43.3931 34.3157 43.3377 34.3731 43.3396 34.443L43.4023 37.5338C43.4042 37.6018 43.4597 37.6572 43.5296 37.6572H43.5315C43.6015 37.6553 43.6569 37.5979 43.655 37.528L43.5923 34.4372C43.5923 34.3673 43.5315 34.3138 43.4635 34.3138ZM45.7981 29.9986C45.5363 29.9986 45.3246 30.2108 45.3246 30.4726C45.3246 30.7345 45.5363 30.9467 45.7981 30.9467C46.0605 30.9467 46.2722 30.7345 46.2722 30.4726C46.2722 30.2108 46.0605 29.9986 45.7981 29.9986ZM52.5931 30.5831C52.3978 29.5689 51.6286 29.5395 50.7268 29.6687C50.9496 29.9378 52.5839 31.8225 52.7681 32.0366C52.7537 31.6252 52.7054 31.168 52.5931 30.5831ZM50.6564 35.7856C50.7451 35.7856 50.8372 35.7837 50.9293 35.7779C50.9997 35.7745 51.0532 35.7152 51.0494 35.6453C51.0455 35.5753 50.9848 35.5218 50.9168 35.5252C48.5836 35.6564 47.785 34.0244 47.7517 33.954C47.7218 33.8913 47.6466 33.8638 47.5839 33.8933C47.5212 33.9227 47.4933 33.9984 47.5227 34.0611C47.5304 34.0799 48.3565 35.7856 50.6564 35.7856ZM36.9912 39.173C37.1981 39.1841 37.3954 39.1894 37.5834 39.1894C39.6861 39.1894 40.6028 38.5055 40.9717 38.072C41.3074 37.6794 41.4453 37.2126 41.3532 36.7921C41.1618 35.9124 40.3868 31.9903 40.3795 31.9498C40.3665 31.8813 40.3 31.8374 40.23 31.8499C40.162 31.863 40.1177 31.9295 40.1307 31.9994C40.1379 32.038 40.9124 35.9645 41.1063 36.8456C41.182 37.189 41.0619 37.5743 40.7779 37.908C40.407 38.3449 39.4223 39.0548 37.0042 38.9203C36.9343 38.915 36.875 38.9699 36.8716 39.0403C36.8697 39.1103 36.9232 39.1691 36.9912 39.173ZM43.4172 63.29C43.397 63.2827 41.4178 62.5835 40.8276 59.6813C40.3868 57.514 39.9976 54.1026 39.9942 54.0678C39.9865 53.9974 39.9238 53.9478 39.8539 53.9569C39.784 53.9641 39.7338 54.0268 39.743 54.0973C39.7468 54.132 40.136 57.555 40.5806 59.7329C41.2003 62.7754 43.2494 63.5002 43.3377 63.5296C43.3507 63.5335 43.3657 63.5369 43.3787 63.5369C43.4322 63.5369 43.4799 63.5036 43.4983 63.4506C43.5185 63.384 43.4838 63.3121 43.4172 63.29ZM48.1004 58.521L47.8882 58.5398L47.4566 54.6523C47.4489 54.5838 47.3862 54.5342 47.3163 54.54C47.2463 54.5472 47.1962 54.6099 47.2039 54.6798L47.65 58.6888C47.6577 58.7534 47.7112 58.8016 47.7754 58.8016C47.7792 58.8016 47.7831 58.8016 47.7865 58.8016L48.1207 58.7737C48.1906 58.7684 48.2422 58.7076 48.2369 58.6372C48.2311 58.5673 48.1723 58.5176 48.1004 58.521ZM38.2991 71.6913C38.3174 71.7434 38.3652 71.7762 38.4187 71.7762C38.4317 71.7762 38.4467 71.7747 38.4597 71.7689C38.5258 71.7468 38.561 71.673 38.5368 71.6084C38.3266 71.0017 37.9596 70.1794 37.5449 69.3201C37.7754 69.145 38.3468 68.6579 38.7307 67.9075C38.546 67.2232 38.3415 66.7053 38.2899 66.5833L38.2417 66.5982C38.2104 66.55 38.1496 66.5264 38.0941 66.5466C37.1981 66.8731 36.3976 67.013 36.3899 67.013C36.3865 67.013 36.3826 67.0168 36.3788 67.0168C35.7576 65.831 35.2522 64.9238 35.2411 64.9036C35.2079 64.8428 35.1302 64.8206 35.0694 64.8539C35.0087 64.8867 34.9865 64.9643 35.0217 65.0251C35.0492 65.0748 37.5873 69.6374 38.2991 71.6913ZM57.2097 63.7823C57.2208 63.7857 57.2319 63.7857 57.243 63.7857C57.2984 63.7857 57.35 63.7491 57.3645 63.6936C57.5969 62.8473 57.1509 61.9937 57.132 61.9585C57.0993 61.8977 57.0235 61.8736 56.9608 61.9069C56.9001 61.9401 56.876 62.0159 56.9092 62.0785C56.9126 62.0858 57.3278 62.8805 57.121 63.629C57.1026 63.6936 57.1431 63.7621 57.2097 63.7823ZM58.1631 63.2827C58.1723 63.2842 58.1819 63.2842 58.1891 63.2842C58.248 63.2842 58.2996 63.2437 58.3126 63.1848C58.5137 62.2353 58.1781 61.5196 58.1631 61.4883C58.1337 61.4256 58.058 61.3995 57.9953 61.4294C57.9326 61.4589 57.907 61.5346 57.9364 61.5973C57.9403 61.6045 58.248 62.2681 58.0657 63.1313C58.0527 63.1993 58.0951 63.2678 58.1631 63.2827ZM38.3136 81.6624C37.5227 81.4487 36.8953 81.4357 36.2905 81.4227C35.8681 81.4135 35.4678 81.4063 35.0473 81.3267C34.2728 81.1792 33.0054 80.1023 32.4947 79.6451C32.5612 79.647 32.6273 79.647 32.6939 79.647C33.4206 79.647 34.212 79.5766 34.9715 79.3741C35.04 79.3558 35.0786 79.2873 35.0603 79.2193C35.042 79.1508 34.9735 79.1141 34.9055 79.1286C32.5723 79.7541 29.9291 79.0809 29.9016 79.0736C29.8331 79.0548 29.7651 79.0953 29.7463 79.1638C29.728 79.2318 29.7685 79.3003 29.837 79.3186C29.8534 79.3225 30.8179 79.5694 32.1036 79.6321C32.2439 79.7647 33.9627 81.3803 34.9976 81.576C35.4403 81.659 35.8497 81.6682 36.2833 81.6773C36.8731 81.6903 37.4836 81.7014 38.2456 81.9078C39.4575 82.2358 39.3022 83.5784 39.295 83.6358C39.2858 83.7057 39.3355 83.7684 39.4039 83.7775C39.4092 83.7775 39.415 83.7795 39.4203 83.7795C39.483 83.7795 39.5366 83.7332 39.5457 83.669C39.5496 83.6502 39.7396 82.0477 38.3136 81.6624ZM36.7554 82.7412C36.7313 82.6766 36.6575 82.6438 36.5929 82.6674C36.5283 82.6934 36.495 82.7653 36.5191 82.8318L36.8253 83.6391C36.8437 83.6893 36.8919 83.7206 36.9435 83.7206C36.958 83.7206 36.9729 83.7187 36.9879 83.7129C37.052 83.6874 37.0853 83.6155 37.0616 83.549L36.7554 82.7412ZM38.4226 82.5218C38.3546 82.5256 38.2952 82.5753 38.2914 82.6452L38.2639 83.5639C38.262 83.6338 38.3174 83.6912 38.3859 83.6946C38.3874 83.6946 38.3874 83.6946 38.3893 83.6946C38.4578 83.6946 38.5127 83.6411 38.5166 83.5711L38.5441 82.6529C38.5479 82.5811 38.4925 82.5237 38.4226 82.5218ZM20.4138 67.7214C20.3974 67.6529 20.3289 67.6124 20.2609 67.6288C20.1924 67.6457 20.1519 67.7137 20.1683 67.7822C20.1722 67.7966 20.5372 69.2796 20.9819 70.3087C21.0021 70.3564 21.0484 70.3839 21.0981 70.3839C21.1145 70.3839 21.1314 70.3805 21.1478 70.3728C21.2124 70.3453 21.2418 70.2715 21.2143 70.2069C20.7788 69.1985 20.4176 67.7359 20.4138 67.7214ZM66.0851 65.7205C67.5053 67.4335 73.437 65.8459 82.6259 60.7929C74.5636 65.0936 66.0851 65.7205 66.0851 65.7205Z" fill="#242330"/>
</svg>
