<svg width="236" height="48" viewBox="0 0 236 48" fill="none" xmlns="http://www.w3.org/2000/svg">
<mask id="mask0_9_17" style="mask-type:alpha" maskUnits="userSpaceOnUse" x="0" y="4" width="235" height="44">
<path d="M8.88 11.36V32.672C8.88 32.992 8.88 33.28 8.88 33.536C8.88 33.792 8.896 34.032 8.928 34.256C8.96 34.864 9.136 35.312 9.456 35.6C9.808 35.856 10.192 36.016 10.608 36.08C11.056 36.176 11.504 36.208 11.952 36.176C12.432 36.144 12.848 36.128 13.2 36.128C14.8 36.128 16.384 35.872 17.952 35.36C19.552 34.816 20.848 33.968 21.84 32.816C22.8 31.728 23.568 30.336 24.144 28.64C24.72 26.944 25.008 24.8 25.008 22.208C25.008 20.16 24.832 18.272 24.48 16.544C24.16 14.816 23.584 13.312 22.752 12.032C21.888 10.784 20.736 9.808 19.296 9.104C17.888 8.368 16.096 7.968 13.92 7.904C13.728 7.904 13.44 7.92 13.056 7.952C12.704 7.952 12.336 7.952 11.952 7.952C11.568 7.984 11.216 8.016 10.896 8.048C10.576 8.048 10.368 8.048 10.272 8.048C9.888 8.144 9.6 8.272 9.408 8.432C9.216 8.592 9.072 8.896 8.976 9.344C8.912 9.472 8.864 9.616 8.832 9.776C8.832 9.904 8.832 10.048 8.832 10.208C8.832 10.4 8.832 10.592 8.832 10.784C8.864 10.976 8.88 11.168 8.88 11.36ZM1.44 7.28C1.024 7.248 0.704 7.12 0.48 6.896C0.288 6.64 0.192 6.368 0.192 6.08C0.16 5.824 0.256 5.6 0.48 5.408C0.704 5.184 0.96 5.072 1.248 5.072H9.792C11.104 5.072 12.608 5.12 14.304 5.216C16 5.28 17.424 5.408 18.576 5.6C20.176 5.856 21.664 6.384 23.04 7.184C24.416 7.952 25.6 9.024 26.592 10.4C27.584 11.776 28.352 13.44 28.896 15.392C29.472 17.344 29.76 19.616 29.76 22.208C29.76 25.824 29.232 28.72 28.176 30.896C27.152 33.04 25.776 34.72 24.048 35.936C22.416 37.088 20.608 37.888 18.624 38.336C16.64 38.784 14.272 39.008 11.52 39.008H4.56V11.408C4.56 9.968 4.288 8.96 3.744 8.384C3.2 7.776 2.432 7.408 1.44 7.28ZM45.3675 39.488C41.9115 39.488 39.0795 38.448 36.8715 36.368C34.6955 34.288 33.6075 31.28 33.6075 27.344C33.6075 25.68 33.8475 24.096 34.3275 22.592C34.8075 21.088 35.5275 19.76 36.4875 18.608C37.4475 17.488 38.6475 16.592 40.0875 15.92C41.5595 15.248 43.2875 14.912 45.2715 14.912C48.9195 14.912 51.7995 16.048 53.9115 18.32C56.0555 20.56 57.1275 23.552 57.1275 27.296C57.1275 30.976 56.0715 33.936 53.9595 36.176C51.8795 38.384 49.0155 39.488 45.3675 39.488ZM38.1195 27.344C38.1195 28.56 38.2475 29.744 38.5035 30.896C38.7595 32.048 39.1755 33.056 39.7515 33.92C40.3275 34.816 41.0795 35.536 42.0075 36.08C42.9355 36.592 44.0715 36.848 45.4155 36.848C46.6635 36.848 47.7355 36.576 48.6315 36.032C49.5275 35.488 50.2635 34.768 50.8395 33.872C51.4155 33.008 51.8315 32 52.0875 30.848C52.3755 29.696 52.5195 28.512 52.5195 27.296C52.5195 26.112 52.3915 24.944 52.1355 23.792C51.8795 22.608 51.4635 21.552 50.8875 20.624C50.3115 19.728 49.5595 18.992 48.6315 18.416C47.7035 17.84 46.5675 17.552 45.2235 17.552C43.9115 17.552 42.8075 17.824 41.9115 18.368C41.0155 18.912 40.2795 19.648 39.7035 20.576C39.1275 21.472 38.7115 22.512 38.4555 23.696C38.2315 24.88 38.1195 26.096 38.1195 27.344ZM78.3105 28.352V25.712C78.3105 25.008 78.1985 24.208 77.9745 23.312C77.7825 22.384 77.4465 21.52 76.9665 20.72C76.4865 19.92 75.8305 19.248 74.9985 18.704C74.1985 18.128 73.1745 17.84 71.9265 17.84C69.5585 17.84 67.8625 18.736 66.8385 20.528C65.8145 22.288 65.3025 24.464 65.3025 27.056C65.3025 28.208 65.4145 29.296 65.6385 30.32C65.8945 31.344 66.2945 32.24 66.8385 33.008C67.3825 33.776 68.0865 34.384 68.9505 34.832C69.8465 35.28 70.9345 35.504 72.2145 35.504C73.9105 35.504 75.3505 34.816 76.5345 33.44C77.7185 32.064 78.3105 30.368 78.3105 28.352ZM82.4385 20.672V38.768C82.4385 40.432 82.1665 41.84 81.6225 42.992C81.1105 44.176 80.3905 45.12 79.4625 45.824C78.5345 46.56 77.4305 47.088 76.1505 47.408C74.8705 47.728 73.4785 47.888 71.9745 47.888C68.6465 47.888 66.2145 47.28 64.6785 46.064C63.1425 44.848 62.2945 43.28 62.1345 41.36H66.5025C66.5985 42.416 67.0625 43.312 67.8945 44.048C68.7585 44.784 70.2625 45.152 72.4065 45.152C73.5905 45.152 74.5505 44.96 75.2865 44.576C76.0545 44.224 76.6625 43.728 77.1105 43.088C77.5585 42.448 77.8625 41.696 78.0225 40.832C78.2145 40 78.3105 39.104 78.3105 38.144V34.88C78.1825 35.168 77.9425 35.504 77.5905 35.888C77.2385 36.272 76.7745 36.656 76.1985 37.04C75.6225 37.392 74.9185 37.696 74.0865 37.952C73.2865 38.208 72.3585 38.336 71.3025 38.336C69.8945 38.336 68.5505 38.096 67.2705 37.616C66.0225 37.136 64.9345 36.416 64.0065 35.456C63.0785 34.528 62.3425 33.36 61.7985 31.952C61.2545 30.544 60.9825 28.912 60.9825 27.056C60.9825 25.52 61.2065 24.016 61.6545 22.544C62.1025 21.072 62.7745 19.776 63.6705 18.656C64.5345 17.536 65.6225 16.64 66.9345 15.968C68.2465 15.264 69.7505 14.912 71.4465 14.912C73.1105 14.912 74.5825 15.296 75.8625 16.064C77.1425 16.832 77.9585 17.632 78.3105 18.464V17.024C78.3105 16.512 78.4545 16.112 78.7425 15.824C79.0305 15.536 79.4145 15.392 79.8945 15.392H85.3185C85.5745 15.392 85.8145 15.504 86.0385 15.728C86.2625 15.952 86.3745 16.208 86.3745 16.496C86.3425 16.784 86.1985 17.008 85.9425 17.168C85.7185 17.296 85.4625 17.36 85.1745 17.36C84.5025 17.36 83.8785 17.584 83.3025 18.032C82.7265 18.448 82.4385 19.328 82.4385 20.672ZM95.4503 39.008V17.696C95.4503 17.152 95.2423 16.64 94.8263 16.16C94.4103 15.648 93.8343 15.392 93.0983 15.392H88.2503C87.9303 15.392 87.6423 15.488 87.3863 15.68C87.1623 15.872 87.0503 16.112 87.0503 16.4C87.0503 16.72 87.1623 17.008 87.3863 17.264C87.6423 17.488 87.9783 17.6 88.3943 17.6C88.6823 17.6 89.0023 17.648 89.3543 17.744C89.7063 17.84 90.0103 17.952 90.2663 18.08C90.7463 18.4 91.0343 18.832 91.1303 19.376C91.2263 19.92 91.2743 20.752 91.2743 21.872V39.008H95.4503ZM89.7383 7.856C89.7383 7.024 90.0263 6.304 90.6023 5.696C91.2103 5.088 91.9463 4.784 92.8103 4.784C93.6423 4.784 94.3623 5.088 94.9703 5.696C95.5783 6.304 95.8823 7.024 95.8823 7.856C95.8823 8.72 95.5783 9.456 94.9703 10.064C94.3623 10.64 93.6423 10.928 92.8103 10.928C91.9463 10.928 91.2103 10.64 90.6023 10.064C90.0263 9.456 89.7383 8.72 89.7383 7.856ZM113.199 39.056C111.503 39.024 109.919 38.688 108.447 38.048C106.975 37.44 105.695 36.576 104.607 35.456C103.487 34.336 102.607 32.976 101.967 31.376C101.359 29.776 101.055 27.952 101.055 25.904C101.055 24.048 101.343 22.416 101.919 21.008C102.495 19.568 103.311 18.368 104.367 17.408C105.391 16.448 106.607 15.728 108.015 15.248C109.455 14.736 111.023 14.48 112.719 14.48C113.967 14.48 115.199 14.704 116.415 15.152C117.663 15.6 118.783 16.256 119.775 17.12C120.735 17.984 121.519 19.04 122.127 20.288C122.735 21.536 123.039 22.944 123.039 24.512V27.392H105.519C105.743 29.952 106.591 32.032 108.063 33.632C109.567 35.2 111.663 36.112 114.351 36.368C114.831 36.432 115.727 36.416 117.039 36.32C118.383 36.192 119.743 35.84 121.119 35.264C121.439 35.136 121.711 35.152 121.935 35.312C122.191 35.44 122.367 35.648 122.463 35.936C122.559 36.192 122.559 36.48 122.463 36.8C122.367 37.12 122.143 37.36 121.791 37.52C120.607 38.096 119.343 38.512 117.999 38.768C116.687 39.056 115.087 39.152 113.199 39.056ZM112.575 16.928C111.743 16.928 110.927 17.088 110.127 17.408C109.359 17.696 108.655 18.144 108.015 18.752C107.343 19.36 106.783 20.144 106.335 21.104C105.887 22.064 105.615 23.2 105.519 24.512H118.719C118.687 23.072 118.495 21.872 118.143 20.912C117.791 19.92 117.327 19.136 116.751 18.56C116.175 17.984 115.519 17.568 114.783 17.312C114.079 17.056 113.343 16.928 112.575 16.928ZM160.694 5.552V9.296C160.214 9.104 159.702 8.896 159.158 8.672C158.614 8.416 158.006 8.176 157.334 7.952C156.662 7.76 155.91 7.6 155.078 7.472C154.278 7.312 153.398 7.232 152.438 7.232C150.71 7.232 149.302 7.648 148.214 8.48C147.158 9.312 146.63 10.48 146.63 11.984C146.63 13.2 146.918 14.24 147.493 15.104C148.07 15.968 149.126 16.864 150.662 17.792C151.686 18.464 152.902 19.152 154.31 19.856C155.718 20.528 157.046 21.312 158.294 22.208C159.574 23.104 160.646 24.16 161.51 25.376C162.406 26.56 162.854 28 162.854 29.696C162.854 32.032 162.182 34.016 160.838 35.648C159.494 37.248 157.622 38.336 155.222 38.912C154.198 39.168 153.094 39.328 151.91 39.392C150.726 39.456 149.574 39.456 148.454 39.392C147.366 39.328 146.358 39.216 145.43 39.056C144.502 38.896 143.798 38.72 143.318 38.528C142.71 38.336 142.294 38 142.07 37.52C141.846 37.008 141.766 36.512 141.83 36.032C141.926 35.584 142.15 35.232 142.502 34.976C142.886 34.688 143.366 34.64 143.942 34.832C144.646 35.12 145.51 35.408 146.534 35.696C147.59 35.984 148.678 36.176 149.798 36.272C150.918 36.368 152.022 36.336 153.109 36.176C154.23 35.984 155.206 35.552 156.038 34.88C156.614 34.432 157.126 33.824 157.574 33.056C158.054 32.288 158.294 31.376 158.294 30.32C158.294 29.104 157.942 28.096 157.238 27.296C156.534 26.464 155.622 25.712 154.502 25.04C153.414 24.368 152.182 23.696 150.806 23.024C149.43 22.352 148.07 21.52 146.726 20.528C145.542 19.696 144.486 18.624 143.558 17.312C142.63 16 142.166 14.528 142.166 12.896C142.166 10.016 143.174 7.888 145.19 6.512C147.238 5.104 149.878 4.4 153.109 4.4C153.91 4.4 154.662 4.448 155.366 4.544C156.102 4.608 156.806 4.704 157.478 4.832C158.118 4.96 158.694 5.088 159.206 5.216C159.75 5.344 160.246 5.456 160.694 5.552ZM172.886 24.464V28.544C172.886 29.248 172.982 30.064 173.174 30.992C173.366 31.92 173.702 32.816 174.182 33.68C174.63 34.512 175.238 35.216 176.006 35.792C176.806 36.368 177.782 36.656 178.934 36.656C180.182 36.656 181.206 36.368 182.006 35.792C182.838 35.184 183.51 34.4 184.022 33.44C184.502 32.512 184.838 31.488 185.03 30.368C185.254 29.216 185.366 28.112 185.366 27.056C185.366 26.096 185.254 25.072 185.03 23.984C184.838 22.864 184.486 21.84 183.974 20.912C183.494 19.984 182.822 19.2 181.958 18.56C181.126 17.92 180.086 17.6 178.838 17.6C177.398 17.6 176.07 18.208 174.854 19.424C173.638 20.608 172.982 22.288 172.886 24.464ZM172.838 17.6V18.608C172.902 18.384 173.11 18.064 173.462 17.648C173.814 17.232 174.278 16.816 174.854 16.4C175.398 16.016 176.038 15.68 176.773 15.392C177.542 15.072 178.39 14.912 179.318 14.912C182.39 14.912 184.886 15.984 186.806 18.128C188.726 20.272 189.686 23.216 189.686 26.96C189.686 28.592 189.494 30.16 189.109 31.664C188.758 33.168 188.182 34.512 187.382 35.696C186.582 36.848 185.526 37.76 184.214 38.432C182.934 39.136 181.366 39.488 179.51 39.488C177.878 39.488 176.486 39.104 175.334 38.336C174.182 37.6 173.366 36.8 172.886 35.936V47.744H168.71V21.68C168.71 21.264 168.694 20.88 168.662 20.528C168.662 20.176 168.63 19.856 168.566 19.568C168.502 19.28 168.39 19.008 168.23 18.752C168.102 18.496 167.91 18.272 167.654 18.08C167.398 17.92 167.094 17.808 166.742 17.744C166.39 17.648 166.07 17.6 165.782 17.6C165.366 17.6 165.03 17.488 164.774 17.264C164.55 17.008 164.438 16.72 164.438 16.4C164.438 16.112 164.55 15.872 164.774 15.68C165.03 15.488 165.318 15.392 165.638 15.392H170.486C171.222 15.392 171.798 15.648 172.214 16.16C172.63 16.64 172.838 17.12 172.838 17.6ZM204.977 39.488C201.521 39.488 198.689 38.448 196.481 36.368C194.305 34.288 193.217 31.28 193.217 27.344C193.217 25.68 193.457 24.096 193.937 22.592C194.417 21.088 195.137 19.76 196.097 18.608C197.057 17.488 198.257 16.592 199.697 15.92C201.169 15.248 202.897 14.912 204.881 14.912C208.529 14.912 211.409 16.048 213.521 18.32C215.665 20.56 216.737 23.552 216.737 27.296C216.737 30.976 215.681 33.936 213.569 36.176C211.489 38.384 208.625 39.488 204.977 39.488ZM197.729 27.344C197.729 28.56 197.857 29.744 198.113 30.896C198.369 32.048 198.785 33.056 199.361 33.92C199.937 34.816 200.689 35.536 201.617 36.08C202.545 36.592 203.681 36.848 205.025 36.848C206.273 36.848 207.345 36.576 208.241 36.032C209.137 35.488 209.873 34.768 210.449 33.872C211.025 33.008 211.441 32 211.697 30.848C211.985 29.696 212.129 28.512 212.129 27.296C212.129 26.112 212.001 24.944 211.745 23.792C211.489 22.608 211.073 21.552 210.497 20.624C209.921 19.728 209.169 18.992 208.241 18.416C207.313 17.84 206.177 17.552 204.833 17.552C203.521 17.552 202.417 17.824 201.521 18.368C200.625 18.912 199.889 19.648 199.313 20.576C198.737 21.472 198.321 22.512 198.065 23.696C197.841 24.88 197.729 26.096 197.729 27.344ZM234.368 36.368V39.104C233.792 39.232 233.072 39.328 232.208 39.392C231.376 39.456 230.72 39.488 230.24 39.488C228.672 39.488 227.424 39.328 226.496 39.008C225.568 38.72 224.848 38.272 224.336 37.664C223.856 37.056 223.536 36.32 223.376 35.456C223.248 34.56 223.184 33.536 223.184 32.384V18.224H219.344V15.392H223.184V11.408L227.264 7.568V15.392H233.888V18.224H227.312V33.344C227.312 34.08 227.392 34.672 227.552 35.12C227.712 35.568 227.984 35.888 228.368 36.08C228.88 36.368 229.68 36.56 230.768 36.656C231.888 36.752 233.088 36.656 234.368 36.368Z" fill="#FF6047"/>
</mask>
<g mask="url(#mask0_9_17)">
<path d="M0 -5H236V58H0V-5Z" fill="url(#paint0_linear_9_17)"/>
</g>
<defs>
<linearGradient id="paint0_linear_9_17" x1="118" y1="-5" x2="118" y2="58" gradientUnits="userSpaceOnUse">
<stop stop-color="#FF2300"/>
<stop offset="1" stop-color="#007994" stop-opacity="0.4"/>
</linearGradient>
</defs>
</svg>
